HIERARCHY
ROOT hip
{
	OFFSET 0.000000 0.000000 0.000000 
	CHANNELS 6 Xposition Yposition Zposition Xrotation Zrotation Yrotation
	JOINT abdomen
	{
		OFFSET 0.000000 3.402643 0.000000 
		CHANNELS 3 Xrotation Zrotation Yrotation
		JOINT chest
		{
			OFFSET 0.000000 8.438565 -0.680529 
			CHANNELS 3 Xrotation Zrotation Yrotation
			JOINT neck
			{
				OFFSET 0.000000 10.207942 -0.272212 
				CHANNELS 3 Xrotation Zrotation Yrotation
				JOINT head
				{
					OFFSET 0.000000 3.130431 0.000000 
					CHANNELS 3 Xrotation Zrotation Yrotation
					End Site
					{
						OFFSET 0.000000 3.130435 0.000000 
					}
				}
			}
			JOINT lCollar
			{
				OFFSET 3.470700 6.669187 -0.816635 
				CHANNELS 3 Yrotation Zrotation Xrotation
				JOINT lShldr
				{
					OFFSET 3.198488 0.000000 0.000000 
					CHANNELS 3 Zrotation Yrotation Xrotation
					JOINT lForeArm
					{
						OFFSET 10.139888 0.000000 0.000000 
						CHANNELS 3 Yrotation Zrotation Xrotation
						JOINT lHand
						{
							OFFSET 8.370511 0.000000 0.000000 
							CHANNELS 3 Zrotation Yrotation Xrotation
							End Site
							{
								OFFSET 4.083176 0.000000 0.000000 
							}
						}
					}
				}
			}
			JOINT rCollar
			{
				OFFSET -3.470700 6.669187 -0.816635 
				CHANNELS 3 Yrotation Zrotation Xrotation
				JOINT rShldr
				{
					OFFSET -3.198488 0.000000 0.000000 
					CHANNELS 3 Zrotation Yrotation Xrotation
					JOINT rForeArm
					{
						OFFSET -10.139888 0.000000 0.000000 
						CHANNELS 3 Yrotation Zrotation Xrotation
						JOINT rHand
						{
							OFFSET -8.370511 0.000000 0.000000 
							CHANNELS 3 Zrotation Yrotation Xrotation
							End Site
							{
								OFFSET -4.083176 0.000000 0.000000 
							}
						}
					}
				}
			}
		}
	}
	JOINT lThigh
	{
		OFFSET 5.308129 -1.633274 1.361059 
		CHANNELS 3 Xrotation Zrotation Yrotation
		JOINT lShin
		{
			OFFSET -2.041588 -20.007561 0.000000 
			CHANNELS 3 Xrotation Zrotation Yrotation
			JOINT lFoot
			{
				OFFSET 0.000000 -19.190928 -1.224953 
				CHANNELS 3 Xrotation Yrotation Zrotation
				End Site
				{
					OFFSET 0.000000 -2.449906 4.627600 
				}
			}
		}
	}
	JOINT rThigh
	{
		OFFSET -5.308129 -1.633274 1.361059 
		CHANNELS 3 Xrotation Zrotation Yrotation
		JOINT rShin
		{
			OFFSET 2.041588 -20.007561 0.000000 
			CHANNELS 3 Xrotation Zrotation Yrotation
			JOINT rFoot
			{
				OFFSET 0.000000 -19.190928 -1.224953 
				CHANNELS 3 Xrotation Yrotation Zrotation
				End Site
				{
					OFFSET 0.000000 -2.449906 4.627600 
				}
			}
		}
	}
}
MOTION
Frames: 16
Frame Time: 0.033333
134.165741 50.964733 -130.641312 -0.492244 7.275126 -20.755196 45.168648 1.653740 5.789367 -20.839844 0.000000 0.000000 -76.793182 -10.679297 0.988583 8.603516 0.000000 0.000000 -4.754609 -0.109183 -0.002653 -71.222298 32.212814 0.577473 -35.830685 -24.535791 29.851181 10.827008 -2.303466 -1.866866 4.754609 0.109183 -0.002672 89.044327 -18.639053 -15.896287 53.739243 1.454703 23.414450 2.772237 7.230503 32.911736 -7.030907 -4.316231 -28.893988 9.402432 12.582745 -16.802080 19.952089 25.866390 -26.218636 -2.500166 -16.159489 -9.459220 11.486262 6.526748 0.575622 2.961952 3.667052 -4.955939 
134.964264 48.000992 -130.435440 -0.294878 6.523352 -20.599691 45.710876 4.222819 5.761182 -20.839844 0.000000 0.000000 -79.236229 -9.851580 1.641497 8.603516 0.000000 0.000000 -4.754609 -0.109183 -0.002653 -76.931671 24.659054 2.253086 -27.218586 -17.784283 30.387009 10.850201 -2.907362 -2.513467 4.754609 0.109183 -0.002672 88.344826 -11.616306 -13.304183 45.050854 -0.410711 22.897581 -0.233687 10.173119 33.745792 -8.388577 -10.533793 -32.154465 20.866747 19.234852 -11.959105 7.261297 33.638767 -24.585642 -10.858294 -18.170570 -9.436896 32.118397 5.878726 3.492220 -18.326828 6.409960 -5.167708 
135.824753 46.717762 -130.327499 0.206173 5.908165 -21.061869 47.042641 6.421916 5.877191 -20.839844 0.000000 0.000000 -81.988457 -8.294161 1.587945 8.603516 0.000000 0.000000 -4.754609 -0.109183 -0.002653 -81.950340 16.227947 1.023651 -17.017374 -13.054840 30.433531 9.301900 -4.975695 5.665542 4.754609 0.109183 -0.002672 87.209000 -5.589431 -10.760944 38.305817 -0.991322 22.324989 -4.828037 11.276879 33.232281 -13.720355 -14.791794 -35.251141 35.200188 17.740786 -7.509682 0.330937 37.766357 -21.523752 -15.563318 -18.920721 -8.817994 40.796131 4.648110 4.761807 -23.844929 6.525571 -3.578456 
136.765198 46.809711 -130.302017 0.677462 5.937088 -21.648037 48.292297 7.809276 5.394793 -20.839844 0.000000 0.000000 -82.653893 -6.572932 0.574269 8.603516 0.000000 0.000000 -4.754609 -0.109183 -0.002653 -83.579170 11.097949 3.316697 -14.048324 -10.970728 33.387329 9.350533 -6.399666 10.780317 4.754609 0.109183 -0.002672 87.458580 -6.143123 -9.789836 42.938618 0.231778 22.588524 -6.577747 7.862863 31.591206 -25.467182 -10.682889 -26.379059 44.706188 4.824069 -7.808601 -1.947204 24.876701 -13.015685 -18.921879 -19.975117 -7.876454 43.244358 3.710688 5.509612 -18.467615 5.432003 -1.124989 
137.700134 47.538773 -130.228073 1.199499 6.658710 -22.585308 48.335567 8.120861 3.959603 -20.839844 0.000000 0.000000 -81.310440 -5.223140 -0.052368 8.603516 0.000000 0.000000 -4.754609 -0.109183 -0.002653 -81.227325 8.826042 5.833451 -16.262611 -12.042530 36.545261 12.459868 -6.991352 11.719090 4.754609 0.109183 -0.002672 88.705658 -10.638751 -9.825633 53.967007 3.160450 21.960489 -4.414023 3.928551 28.374136 -31.697287 1.347572 -2.966262 46.924259 -2.611073 -7.571208 3.998680 -3.479155 -1.151649 -22.095560 -21.440348 -7.482229 43.601227 3.212850 5.543876 -9.370113 4.688228 -0.764465 
138.551132 48.200874 -129.981232 1.822138 7.476729 -24.527920 47.055367 7.461887 1.969807 -20.839844 0.000000 0.000000 -80.109680 -4.002360 0.552500 8.603516 0.000000 0.000000 -4.754609 -0.109183 -0.002653 -77.724373 5.833808 5.424746 -16.245947 -11.857645 33.779949 14.545192 -7.784354 9.472095 4.754609 0.109183 -0.002672 89.758484 -13.298141 -9.744463 60.786266 5.440584 20.287539 -1.767485 2.183384 25.166395 -32.344429 2.381800 -0.964633 45.496994 -1.724557 -7.411566 8.153357 -5.616928 -1.970480 -25.904102 -22.700535 -7.840145 45.445274 3.769232 5.438377 -2.588525 5.253893 -2.031286 
139.262695 48.232864 -129.513992 2.128186 7.621753 -27.578836 45.260437 6.332235 0.194492 -20.839844 0.000000 0.000000 -80.137787 -2.453567 1.370701 8.603516 0.000000 0.000000 -4.754609 -0.109183 -0.002653 -75.102371 0.195087 3.342890 -12.871528 -8.124020 25.000456 13.313101 -9.089552 3.994428 4.754609 0.109183 -0.002672 89.563911 -11.353078 -8.866404 60.025097 5.123122 18.831802 -1.254154 1.975164 23.178780 -30.798853 2.529105 -4.136405 43.974308 -0.774300 -7.443130 5.053453 -1.095741 -4.315391 -29.068514 -22.632923 -8.723143 49.426285 5.419446 5.752879 -0.722334 7.260308 -1.736735 
139.804382 47.505791 -128.846390 1.544270 6.862765 -30.927702 43.791725 5.321624 -0.897438 -20.839844 0.000000 0.000000 -80.439217 -0.685741 1.373169 8.603516 0.000000 0.000000 -4.754609 -0.109183 -0.002653 -71.754097 -6.032871 1.939554 -14.877338 -5.148530 16.404978 12.848645 -8.996437 -2.353640 4.754609 0.109183 -0.002672 86.805962 -6.525990 -7.307273 57.674923 4.299393 17.659479 -3.442691 2.696347 21.636732 -25.804886 -3.659452 -20.702204 42.954964 2.183764 -8.254774 -2.238420 20.127890 -11.157234 -28.755854 -20.972712 -9.927431 52.643581 7.421556 5.757987 -4.075321 8.816298 -1.062426 
140.201645 46.506390 -128.090347 -0.137355 5.517562 -33.567833 42.932358 4.543808 -1.374629 -20.839844 0.000000 0.000000 -79.740784 0.680146 1.223857 8.603516 0.000000 0.000000 -4.754609 -0.109183 -0.002653 -65.852325 -9.474504 0.695322 -31.572178 -8.897667 12.906363 17.063299 -6.070009 -3.899587 4.754609 0.109183 -0.002672 80.877663 -3.404373 -6.204766 64.019798 5.991129 16.965446 -7.793893 3.770787 20.064890 -14.696911 -12.273540 -33.281612 40.870632 13.489624 -4.858230 -6.128218 38.159031 -16.746801 -24.410238 -19.136341 -11.015094 52.820911 8.671756 4.835489 -12.796927 9.011392 -3.226820 
140.500473 46.275028 -127.404259 -2.555117 4.019450 -35.432690 42.479626 3.561386 -1.392808 -20.839844 0.000000 0.000000 -77.568497 1.275413 1.771921 8.603516 0.000000 0.000000 -4.754609 -0.109183 -0.002653 -59.736248 -9.649436 -0.815158 -62.933990 -15.682171 12.320975 20.482386 3.205122 5.986290 4.754609 0.109183 -0.002672 71.945686 -2.215448 -5.958253 78.968109 9.640065 15.052734 -12.557588 5.143866 18.417446 -6.885375 -14.333271 -33.550533 36.797466 18.467054 -2.548589 -8.191525 40.521515 -15.558641 -18.022606 -17.951994 -11.464974 48.854214 8.485876 3.439512 -19.797709 8.625975 -6.555269 
140.668869 47.710175 -126.818604 -4.818876 2.452249 -37.501404 42.141357 1.906538 -0.839310 -20.839844 0.000000 0.000000 -74.091438 1.543357 2.479958 8.603516 0.000000 0.000000 -4.754609 -0.109183 -0.002653 -55.861237 -7.732533 -1.825608 -89.994392 -18.526375 11.423639 16.420950 7.810608 17.255527 4.754609 0.109183 -0.002672 62.519680 -2.046538 -6.320483 96.201881 12.713722 10.720168 -13.676345 5.726285 16.697515 1.846074 -12.363263 -32.770622 23.434336 20.895140 -5.264718 2.259556 39.464249 -21.026464 -10.613481 -16.714243 -11.442887 38.717812 7.567955 1.891045 -14.609779 7.569766 -7.452946 
140.659882 50.276646 -126.334885 -6.006321 0.708978 -40.699593 41.807724 -0.512029 0.165924 -20.839844 0.000000 0.000000 -69.810196 2.109211 2.962122 8.603516 0.000000 0.000000 -4.754609 -0.109183 -0.002653 -53.330734 -3.526126 -0.797655 -98.166611 -22.312916 10.738346 13.527641 3.938652 20.324068 4.754609 0.109183 -0.002672 56.092335 -3.180661 -6.477891 108.696106 14.539532 7.647439 -10.650689 6.148473 17.526588 12.325332 -4.151988 -31.191565 -1.845440 17.690268 -12.447119 24.444441 34.718071 -30.464041 -3.017484 -14.484881 -10.307744 23.367115 7.294320 0.187821 3.040518 5.197320 -4.764677 
140.550430 53.041500 -126.017075 -5.265141 -1.351697 -44.807125 41.415421 -2.676826 1.455073 -20.839844 0.000000 0.000000 -65.690109 2.986193 3.797455 8.603516 0.000000 0.000000 -4.754609 -0.109183 -0.002653 -53.323067 0.982907 0.978431 -84.232422 -26.348917 15.961421 16.995520 -1.796329 18.534630 4.754609 0.109183 -0.002672 54.216537 -5.107897 -6.217148 112.006554 15.719740 8.844555 -5.211059 7.456166 21.874832 6.766642 0.047872 -34.777039 8.430077 7.509551 -17.925596 32.049309 40.736408 -36.675148 3.298058 -10.629572 -8.821795 8.284399 7.862233 -2.782736 22.359226 3.973820 1.079595 
140.242111 56.591896 -126.015083 -3.840884 -2.260541 -48.793705 41.375355 -6.461175 1.169463 -20.839844 0.000000 0.000000 -62.546761 4.098606 4.890063 8.603516 0.000000 0.000000 -4.754609 -0.109183 -0.002653 -53.542454 2.518926 1.417509 -59.479195 -24.083969 22.477623 20.499659 -6.972557 10.487605 4.754609 0.109183 -0.002672 55.971233 -5.731210 -6.705173 105.982628 15.076555 14.549505 0.942942 9.213368 28.109648 11.874346 0.360850 -32.146729 4.935300 16.806866 -15.427523 42.733864 30.228262 -40.236389 8.065767 -4.463104 -10.033918 -2.141904 5.478333 -8.509090 34.188026 9.369970 5.861482 
140.180649 58.968983 -126.150497 -1.720850 -2.830756 -51.370174 41.900959 -9.090581 0.368654 -20.839844 0.000000 0.000000 -60.588654 5.565873 5.371142 8.603516 0.000000 0.000000 -4.754609 -0.109183 -0.002653 -53.731739 0.380104 0.948484 -38.276180 -16.770975 22.527899 17.758179 -7.401487 0.875737 4.754609 0.109183 -0.002672 57.928856 -4.097363 -8.350144 95.156364 11.747852 21.207779 5.847543 9.601221 33.857410 -5.874182 -1.408775 -27.966082 45.372803 8.471682 -5.968554 25.136038 26.826998 -23.956404 -6.558996 -5.084030 -10.199532 33.100273 11.374690 -3.388267 18.876566 9.022712 10.034074 
140.420013 60.124794 -126.286430 -0.185785 -2.900376 -52.305061 43.263821 -10.807960 -0.889953 -20.839844 0.000000 0.000000 -60.634636 7.182332 5.009866 8.603516 0.000000 0.000000 -4.754609 -0.109183 -0.002653 -54.670033 -3.382171 -0.892361 -20.483364 -10.524786 21.259214 14.986159 -7.440230 -1.024776 4.754609 0.109183 -0.002672 57.232777 -2.264830 -10.788104 84.788849 7.572710 24.574575 8.605482 8.051695 36.422588 -22.569246 10.904564 -3.450303 76.541367 8.829882 -0.382080 7.149305 7.861532 5.543364 -17.283699 -5.116866 -9.804780 63.382954 13.787846 3.285385 6.731779 7.391772 10.809103 
